# xmcd CD database file
#
# Track frame offsets:
#	150
#	17549
#	36374
#	56539
#	78704
#	99946
#	119280
#	137094
#	154383
#	179562
#	194205
#	211378
#	228944
#
# Disc length: 3228 seconds
#
# Revision: 0
# Processed by: cddbd v1.5.1PL2 Copyright (c) Steve Scherf et al.
# Submitted via: Feurio! 1.68 - http://www.feurio.com
#
DISCID=b70c9a0d
DTITLE=Mojo Swamp - Up A Lazy River
DYEAR=1900
DGENRE=Blues
TTITLE0=Am I Wrong?
TTITLE1=Hesitation Blues
TTITLE2=Frankie and Johnny
TTITLE3=Thought About You
TTITLE4=C,C. Rider
TTITLE5=These Boots
TTITLE6=Temptation
TTITLE7=Love My Blues Away
TTITLE8=Ain't Nobody's Business
TTITLE9=Perpetual Blues Machine
TTITLE10=Fixin' To Die
TTITLE11=Glory Of Love
TTITLE12=Salty Dog
EXTD=
EXTT0=
EXTT1=
EXTT2=
EXTT3=
EXTT4=
EXTT5=
EXTT6=
EXTT7=
EXTT8=
EXTT9=
EXTT10=
EXTT11=
EXTT12=
PLAYORDER=
